<?xml version="1.0" encoding="iso-8859-1"?>
<!-- Uploaded to: SVG Repo, www.svgrepo.com, Generator: SVG Repo Mixer Tools -->
<svg height="800px" width="800px" version="1.1" id="Layer_1" xmlns="http://www.w3.org/2000/svg" xmlns:xlink="http://www.w3.org/1999/xlink" 
	 viewBox="0 0 512.095 512.095" xml:space="preserve">
<g transform="translate(0 1)">
	<path style="fill:#FFA800;" d="M468.61,176.946c21.695,0,38.183,20.827,33.844,41.654l-42.522,201.329V176.946H468.61z"/>
	<path style="fill:#FF8800;" d="M373.153,107.522h-34.712c16.488,0,30.373,15.62,30.373,34.712h39.051
		C407.864,123.143,392.244,107.522,373.153,107.522"/>
	<path style="fill:#FFA800;" d="M373.153,142.234c0-19.092-13.885-34.712-30.373-34.712h-83.308l-38.183-52.068H91.986
		c-12.149,0-22.563,12.149-22.563,26.034v60.746H373.153z"/>
	<path style="fill:#FFFFFF;" d="M91.986,55.454H69.424c-14.753,0-26.034,12.149-26.034,26.034v60.746h26.034V81.488
		C69.424,67.604,79.837,55.454,91.986,55.454"/>
	<path style="fill:#FFE100;" d="M34.712,168.268v260.339c0,14.753,10.414,26.034,23.431,26.034h352.325
		c13.017,0,23.431-11.281,23.431-26.034V168.268c0-14.753-10.414-26.034-23.431-26.034H58.142
		C45.125,142.234,34.712,154.383,34.712,168.268"/>
	<path style="fill:#FFFFFF;" d="M34.712,428.607V168.268c0-14.753,10.414-26.034,23.431-26.034H34.712
		c-14.753,0-26.034,11.281-26.034,26.034v260.339c0,14.753,11.281,26.034,26.034,26.034h23.431
		C45.125,454.641,34.712,443.36,34.712,428.607"/>
	<path style="fill:#FFA800;" d="M433.898,142.234h-23.431c13.017,0,23.431,11.281,23.431,26.034v260.339
		c0,14.753-10.414,26.034-23.431,26.034h23.431c14.753,0,26.034-11.281,26.034-26.034V168.268
		C459.932,154.383,448.651,142.234,433.898,142.234"/>
	<path d="M407.864,150.912H43.39c-5.207,0-8.678-3.471-8.678-8.678V81.488c0-19.092,15.62-34.712,34.712-34.712h156.203
		c2.603,0,5.207,0.868,6.942,3.471l40.786,48.597h99.797c24.298,0,43.39,19.092,43.39,43.39
		C416.542,147.441,413.071,150.912,407.864,150.912z M52.068,133.556h345.383c-3.471-10.414-13.017-17.356-24.298-17.356H269.017
		c-2.603,0-5.207-0.868-6.942-3.471l-40.786-48.597H69.424c-9.546,0-17.356,7.81-17.356,17.356V133.556z"/>
	<path d="M433.898,463.319H34.712C15.62,463.319,0,447.699,0,428.607v-34.712c0-5.207,3.471-8.678,8.678-8.678
		s8.678,3.471,8.678,8.678v34.712c0,9.546,7.81,17.356,17.356,17.356h399.186c9.546,0,17.356-7.81,17.356-17.356V168.268
		c0-9.546-7.81-17.356-17.356-17.356H34.712c-9.546,0-17.356,7.81-17.356,17.356v156.203c0,5.207-3.471,8.678-8.678,8.678
		S0,329.678,0,324.471V168.268c0-19.092,15.62-34.712,34.712-34.712h399.186c19.092,0,34.712,15.62,34.712,34.712v260.339
		C468.61,447.699,452.99,463.319,433.898,463.319z"/>
	<path d="M17.356,359.183c0-5.207-3.471-8.678-8.678-8.678S0,353.977,0,359.183s3.471,8.678,8.678,8.678
		S17.356,364.39,17.356,359.183"/>
	<path d="M459.932,428.607h-0.868c-4.339,0-7.81-4.339-7.81-8.678V176.946c0-5.207,3.471-8.678,8.678-8.678h8.678
		c13.017,0,25.166,6.075,33.844,16.488c8.678,10.414,11.281,23.431,8.678,36.447L468.61,422.532
		C466.875,426.004,463.403,428.607,459.932,428.607z M468.61,185.624v151.864l26.034-120.624c1.736-7.81,0-15.62-5.207-21.695
		C484.23,189.095,476.42,185.624,468.61,185.624L468.61,185.624z"/>
	<path d="M164.881,202.98H60.746c-5.207,0-8.678-3.471-8.678-8.678c0-5.207,3.471-8.678,8.678-8.678h104.136
		c5.207,0,8.678,3.471,8.678,8.678C173.559,199.509,170.088,202.98,164.881,202.98z"/>
	<path d="M164.881,237.692H60.746c-5.207,0-8.678-3.471-8.678-8.678c0-5.207,3.471-8.678,8.678-8.678h104.136
		c5.207,0,8.678,3.471,8.678,8.678C173.559,234.221,170.088,237.692,164.881,237.692z"/>
</g>
</svg>