<?xml version="1.0" encoding="iso-8859-1"?>
<!-- Uploaded to: SVG Repo, www.svgrepo.com, Generator: SVG Repo Mixer Tools -->
<svg height="800px" width="800px" version="1.1" id="Layer_1" xmlns="http://www.w3.org/2000/svg" xmlns:xlink="http://www.w3.org/1999/xlink" 
	 viewBox="0 0 503.641 503.641" xml:space="preserve">
<g transform="translate(1)">
	<path style="fill:#FECC00;" d="M108.132,444.886c-9.233,0-16.787-7.554-16.787-16.787V60.467l-8.393-1.679
		c-9.233,0-16.787,7.554-16.787,16.787V478.46c0,9.233,7.554,16.787,16.787,16.787h293.77c9.233,0,16.787-7.554,16.787-16.787
		v-25.18l-0.839-8.393H108.132z"/>
	<path style="fill:#FFFFFF;" d="M66.165,478.46V75.575c0-9.233,7.554-16.787,16.787-16.787h-25.18
		c-9.233,0-16.787,7.554-16.787,16.787V478.46c0,9.233,7.554,16.787,16.787,16.787h25.18
		C73.719,495.247,66.165,487.693,66.165,478.46"/>
	<path style="fill:#FFA800;" d="M443.869,109.149h-83.934c-9.233,0-16.787-7.554-16.787-16.787V8.427L443.869,109.149z"/>
	<path style="fill:#FFE100;" d="M418.689,109.149h-58.754c-9.233,0-16.787-7.554-16.787-16.787V8.427H108.132
		c-9.233,0-16.787,7.554-16.787,16.787V428.1c0,9.233,7.554,16.787,16.787,16.787h293.77c9.233,0,16.787-7.554,16.787-16.787
		V109.149z"/>
	<path style="fill:#FFA800;" d="M418.689,109.149V428.1c0,9.233-7.554,16.787-16.787,16.787h25.18
		c9.233,0,16.787-7.554,16.787-16.787V109.149H418.689z"/>
	<path style="fill:#FFE100;" d="M351.542,0.034h-16.787l8.393,92.328c0,9.233,7.554,16.787,16.787,16.787h83.934V428.1
		c0,9.233-7.554,16.787-16.787,16.787h25.18c9.233,0,16.787-7.554,16.787-16.787V109.149L351.542,0.034z"/>
	<path d="M443.869,117.542h-83.934c-14.269,0-25.18-10.911-25.18-25.18V8.427c0-3.357,1.679-6.715,5.036-7.554
		c3.357-1.679,6.715-0.839,9.233,1.679l100.721,100.721c2.518,2.518,3.357,5.875,1.679,9.233
		C450.584,115.864,447.227,117.542,443.869,117.542z M351.542,28.572v63.79c0,5.036,3.357,8.393,8.393,8.393h63.79L351.542,28.572z"
		/>
	<path d="M427.083,453.28H108.132c-14.269,0-25.18-10.911-25.18-25.18V25.214c0-14.269,10.911-25.18,25.18-25.18h235.016
		c5.036,0,8.393,3.357,8.393,8.393v83.934c0,5.036,3.357,8.393,8.393,8.393h83.934c5.036,0,8.393,3.357,8.393,8.393V209.87
		c0,5.036-3.357,8.393-8.393,8.393c-5.036,0-8.393-3.357-8.393-8.393v-92.328h-75.541c-14.269,0-25.18-10.911-25.18-25.18V16.821
		H108.132c-5.036,0-8.393,4.197-8.393,8.393V428.1c0,5.036,3.357,8.393,8.393,8.393h318.951c5.036,0,8.393-3.357,8.393-8.393
		V277.018c0-5.036,3.357-8.393,8.393-8.393c5.036,0,8.393,3.357,8.393,8.393V428.1C452.263,442.368,441.351,453.28,427.083,453.28z"
		/>
	<path d="M452.263,243.444c0-5.036-3.357-8.393-8.393-8.393c-5.036,0-8.393,3.357-8.393,8.393s3.357,8.393,8.393,8.393
		C448.905,251.837,452.263,248.48,452.263,243.444"/>
	<path d="M376.722,503.641H57.771c-14.269,0-25.18-10.911-25.18-25.18V75.575c0-14.269,10.911-25.18,25.18-25.18h25.18
		c0.839,0,0.839,0,1.679,0l8.393,1.679c4.197,0.839,6.715,4.197,6.715,8.393V428.1c0,5.036,3.357,8.393,8.393,8.393h284.538
		c4.197,0,7.554,3.357,8.393,7.554l0.839,8.393v0.839v25.18C401.902,492.729,390.991,503.641,376.722,503.641z M57.771,67.182
		c-5.036,0-8.393,4.197-8.393,8.393V478.46c0,5.036,3.357,8.393,8.393,8.393h318.951c5.036,0,8.393-3.357,8.393-8.393v-25.18
		H108.132c-14.269,0-25.18-10.911-25.18-25.18V67.182h-0.839H57.771z"/>
	<path d="M301.181,117.542H150.099c-5.036,0-8.393-3.357-8.393-8.393c0-5.036,3.357-8.393,8.393-8.393h151.082
		c5.036,0,8.393,3.357,8.393,8.393C309.574,114.185,306.217,117.542,301.181,117.542z"/>
	<path d="M401.902,167.903H150.099c-5.036,0-8.393-3.357-8.393-8.393c0-5.036,3.357-8.393,8.393-8.393h251.803
		c5.036,0,8.393,3.357,8.393,8.393C410.296,164.545,406.938,167.903,401.902,167.903z"/>
	<path d="M401.902,218.264H150.099c-5.036,0-8.393-3.357-8.393-8.393c0-5.036,3.357-8.393,8.393-8.393h251.803
		c5.036,0,8.393,3.357,8.393,8.393C410.296,214.906,406.938,218.264,401.902,218.264z"/>
	<path d="M401.902,268.624H150.099c-5.036,0-8.393-3.357-8.393-8.393s3.357-8.393,8.393-8.393h251.803
		c5.036,0,8.393,3.357,8.393,8.393S406.938,268.624,401.902,268.624z"/>
	<path d="M401.902,318.985H150.099c-5.036,0-8.393-3.357-8.393-8.393s3.357-8.393,8.393-8.393h251.803
		c5.036,0,8.393,3.357,8.393,8.393S406.938,318.985,401.902,318.985z"/>
	<path d="M401.902,369.345H150.099c-5.036,0-8.393-3.357-8.393-8.393c0-5.036,3.357-8.393,8.393-8.393h251.803
		c5.036,0,8.393,3.357,8.393,8.393C410.296,365.988,406.938,369.345,401.902,369.345z"/>
</g>
</svg>