<!DOCTYPE svg PUBLIC "-//W3C//DTD SVG 1.1//EN" "http://www.w3.org/Graphics/SVG/1.1/DTD/svg11.dtd">
<!-- Uploaded to: SVG Repo, www.svgrepo.com, Transformed by: SVG Repo Mixer Tools -->
<svg height="800px" width="800px" version="1.1" id="Layer_1" xmlns="http://www.w3.org/2000/svg" xmlns:xlink="http://www.w3.org/1999/xlink" viewBox="0 0 512 512" xml:space="preserve" fill="#000000">
<g id="SVGRepo_bgCarrier" stroke-width="0"/>
<g id="SVGRepo_tracerCarrier" stroke-linecap="round" stroke-linejoin="round" stroke="#3a3636" stroke-width="19.456"> <g> <path style="fill:#FFC61B;" d="M450.368,348.321h-11.622v-15.646c0-42.907-34.907-77.816-77.816-77.816 s-77.816,34.907-77.816,77.816v15.646h-11.622c-8.282,0-14.998,6.716-14.998,14.998v104.072c0,24.596,20.012,44.608,44.61,44.608 h119.653c8.282,0,14.998-6.716,14.998-14.998s-6.716-14.998-14.998-14.998H301.103c-8.057,0-14.613-6.554-14.613-14.611v-89.074 h74.44c8.282,0,14.998-6.716,14.998-14.998c0-8.282-6.716-14.998-14.998-14.998h-47.819v-15.646 c0-26.367,21.452-47.819,47.819-47.819s47.819,21.452,47.819,47.819v30.645c0,8.282,6.716,14.998,14.998,14.998h11.622v68.532 c0,8.282,6.716,14.998,14.998,14.998c8.282,0,14.998-6.716,14.998-14.998v-83.531C465.367,355.035,458.652,348.321,450.368,348.321 z"/> <path style="fill:#FFC61B;" d="M360.93,456.519c-8.282,0-14.998-6.716-14.998-14.998v-27.997c0-8.282,6.716-14.998,14.998-14.998 c8.282,0,14.998,6.716,14.998,14.998v27.997C375.928,449.803,369.214,456.519,360.93,456.519z"/> </g> <path style="fill:#FEE187;" d="M96.529,168.34c0,0,47.8-21.182,109.337-27.897c9.854-1.075,50.639-30.151,50.899-30.342 c26.786-19.661,47.596,58.239,47.596,58.239c0.24-1.375,0.477-2.79,0.708-4.237c0.103-0.645,0.205-1.297,0.306-1.954 c2.328-15.126,11.595-33.448,11.529-48.778c-0.043-9.998-0.865-18.724-2.82-24.461c-17.791-52.257-60.56-35.039-60.56-35.039 s-29.832-40.067-52.496-38.838c-0.252-0.007-0.507-0.034-0.756-0.033v0.091c-2.182,0.21-4.296,0.807-6.302,1.887 c-58.563,31.482-66.323,27.543-79.461,32.107c-31.858,11.066-32.693,8.107-28.68,32.66C92.534,122.775,95.277,152.652,96.529,168.34 z"/> <path style="fill:#FFC61B;" d="M328.281,84.076c-14.196-41.696-42.909-47.921-58.762-47.921c-3.786,0-7.267,0.351-10.278,0.841 c-11.39-13.481-34.505-36.991-57.184-36.991c-0.318,0-0.631,0.004-0.945,0.013c-0.33-0.013-0.684-0.024-1.02-0.016 c-1.183,0.013-2.335,0.166-3.438,0.442c-3.45,0.567-6.733,1.68-9.789,3.322c-43.156,23.2-57.264,26.28-66.602,28.317 c-3.339,0.727-6.79,1.482-10.677,2.833c-3.481,1.21-6.587,2.248-9.348,3.172c-13.619,4.557-21.839,7.307-27.119,15.33 c-5.702,8.663-4.188,17.926-2.094,30.747c4.826,29.523,8.368,58.14,10.529,85.063v18.6c0,30.571,11.6,58.479,30.618,79.572 c-39.612,19.357-65.538,61.663-65.538,110.982v110.07c0,8.282,6.716,14.998,14.998,14.998h138.89 c8.282,0,14.998-6.716,14.998-14.998s-6.716-14.998-14.998-14.998H76.63v-95.072c0-43.564,24.623-78.589,61.867-89.083 c18.072,11.087,39.312,17.493,62.023,17.493c65.598,0,118.966-53.367,118.966-118.964v-19.013c0.132-0.784,0.265-1.548,0.394-2.358 l0.318-2.031c0.787-5.123,2.728-11.259,4.783-17.755c3.426-10.836,6.968-22.039,6.919-33.367 C331.847,100.631,330.663,91.068,328.281,84.076z M109.756,66.535c2.857-0.957,6.07-2.031,9.672-3.282 c2.194-0.762,4.308-1.222,7.232-1.861c11.627-2.538,27.551-6.014,74.404-31.203c0.126-0.067,0.289-0.135,0.637-0.168 c0.044-0.004,0.089-0.009,0.133-0.013c0,0,0,0,0.002,0l0.219-0.006c8.78,0,27.836,17.305,39.435,32.825 c4.126,5.542,11.199,7.672,17.554,4.988c0.601-0.214,4.898-1.663,10.472-1.663c14.112,0,24.044,9.026,30.366,27.593 c0.589,1.729,1.966,7.112,2.019,19.693c0.009,1.975-0.235,4.156-0.657,6.47c-10.526-18.803-22.28-27.987-35.725-27.987 c-6.151,0-12.041,2.019-17.545,6.025c-14.328,10.281-37.835,25.571-44.341,27.654c-39.443,4.368-73.138,14.329-93.282,21.37 c-0.256-0.603-0.564-1.179-0.895-1.738c-2.19-21.256-5.137-43.326-8.827-65.904c-0.475-2.911-1.072-6.559-1.348-9.113 C101.849,69.183,105.849,67.843,109.756,66.535z M200.519,276.796c-49.058,0-88.969-39.911-88.969-88.967v-9.347 c16.194-6.122,52.721-18.412,95.943-23.128c15.108-1.65,56.31-31.813,58.089-33.121c1.884,1.296,7.624,6.415,15.195,24.063 c4.563,10.634,7.673,20.951,8.713,24.566v16.966C289.49,236.886,249.577,276.796,200.519,276.796z"/> </g>
<g id="SVGRepo_iconCarrier"> <g> <path style="fill:#FFC61B;" d="M450.368,348.321h-11.622v-15.646c0-42.907-34.907-77.816-77.816-77.816 s-77.816,34.907-77.816,77.816v15.646h-11.622c-8.282,0-14.998,6.716-14.998,14.998v104.072c0,24.596,20.012,44.608,44.61,44.608 h119.653c8.282,0,14.998-6.716,14.998-14.998s-6.716-14.998-14.998-14.998H301.103c-8.057,0-14.613-6.554-14.613-14.611v-89.074 h74.44c8.282,0,14.998-6.716,14.998-14.998c0-8.282-6.716-14.998-14.998-14.998h-47.819v-15.646 c0-26.367,21.452-47.819,47.819-47.819s47.819,21.452,47.819,47.819v30.645c0,8.282,6.716,14.998,14.998,14.998h11.622v68.532 c0,8.282,6.716,14.998,14.998,14.998c8.282,0,14.998-6.716,14.998-14.998v-83.531C465.367,355.035,458.652,348.321,450.368,348.321 z"/> <path style="fill:#FFC61B;" d="M360.93,456.519c-8.282,0-14.998-6.716-14.998-14.998v-27.997c0-8.282,6.716-14.998,14.998-14.998 c8.282,0,14.998,6.716,14.998,14.998v27.997C375.928,449.803,369.214,456.519,360.93,456.519z"/> </g> <path style="fill:#FEE187;" d="M96.529,168.34c0,0,47.8-21.182,109.337-27.897c9.854-1.075,50.639-30.151,50.899-30.342 c26.786-19.661,47.596,58.239,47.596,58.239c0.24-1.375,0.477-2.79,0.708-4.237c0.103-0.645,0.205-1.297,0.306-1.954 c2.328-15.126,11.595-33.448,11.529-48.778c-0.043-9.998-0.865-18.724-2.82-24.461c-17.791-52.257-60.56-35.039-60.56-35.039 s-29.832-40.067-52.496-38.838c-0.252-0.007-0.507-0.034-0.756-0.033v0.091c-2.182,0.21-4.296,0.807-6.302,1.887 c-58.563,31.482-66.323,27.543-79.461,32.107c-31.858,11.066-32.693,8.107-28.68,32.66C92.534,122.775,95.277,152.652,96.529,168.34 z"/> <path style="fill:#FFC61B;" d="M328.281,84.076c-14.196-41.696-42.909-47.921-58.762-47.921c-3.786,0-7.267,0.351-10.278,0.841 c-11.39-13.481-34.505-36.991-57.184-36.991c-0.318,0-0.631,0.004-0.945,0.013c-0.33-0.013-0.684-0.024-1.02-0.016 c-1.183,0.013-2.335,0.166-3.438,0.442c-3.45,0.567-6.733,1.68-9.789,3.322c-43.156,23.2-57.264,26.28-66.602,28.317 c-3.339,0.727-6.79,1.482-10.677,2.833c-3.481,1.21-6.587,2.248-9.348,3.172c-13.619,4.557-21.839,7.307-27.119,15.33 c-5.702,8.663-4.188,17.926-2.094,30.747c4.826,29.523,8.368,58.14,10.529,85.063v18.6c0,30.571,11.6,58.479,30.618,79.572 c-39.612,19.357-65.538,61.663-65.538,110.982v110.07c0,8.282,6.716,14.998,14.998,14.998h138.89 c8.282,0,14.998-6.716,14.998-14.998s-6.716-14.998-14.998-14.998H76.63v-95.072c0-43.564,24.623-78.589,61.867-89.083 c18.072,11.087,39.312,17.493,62.023,17.493c65.598,0,118.966-53.367,118.966-118.964v-19.013c0.132-0.784,0.265-1.548,0.394-2.358 l0.318-2.031c0.787-5.123,2.728-11.259,4.783-17.755c3.426-10.836,6.968-22.039,6.919-33.367 C331.847,100.631,330.663,91.068,328.281,84.076z M109.756,66.535c2.857-0.957,6.07-2.031,9.672-3.282 c2.194-0.762,4.308-1.222,7.232-1.861c11.627-2.538,27.551-6.014,74.404-31.203c0.126-0.067,0.289-0.135,0.637-0.168 c0.044-0.004,0.089-0.009,0.133-0.013c0,0,0,0,0.002,0l0.219-0.006c8.78,0,27.836,17.305,39.435,32.825 c4.126,5.542,11.199,7.672,17.554,4.988c0.601-0.214,4.898-1.663,10.472-1.663c14.112,0,24.044,9.026,30.366,27.593 c0.589,1.729,1.966,7.112,2.019,19.693c0.009,1.975-0.235,4.156-0.657,6.47c-10.526-18.803-22.28-27.987-35.725-27.987 c-6.151,0-12.041,2.019-17.545,6.025c-14.328,10.281-37.835,25.571-44.341,27.654c-39.443,4.368-73.138,14.329-93.282,21.37 c-0.256-0.603-0.564-1.179-0.895-1.738c-2.19-21.256-5.137-43.326-8.827-65.904c-0.475-2.911-1.072-6.559-1.348-9.113 C101.849,69.183,105.849,67.843,109.756,66.535z M200.519,276.796c-49.058,0-88.969-39.911-88.969-88.967v-9.347 c16.194-6.122,52.721-18.412,95.943-23.128c15.108-1.65,56.31-31.813,58.089-33.121c1.884,1.296,7.624,6.415,15.195,24.063 c4.563,10.634,7.673,20.951,8.713,24.566v16.966C289.49,236.886,249.577,276.796,200.519,276.796z"/> </g>
</svg>